<svg width="22" height="22" viewBox="0 0 22 22" fill="none" xmlns="http://www.w3.org/2000/svg">
<path fill-rule="evenodd" clip-rule="evenodd" d="M0 18.4727V11.0498C0.000102708 4.96877 4.79208 0 10.75 0C16.7079 0 21.4999 4.9667 21.5 11.0508V18.4727C21.5 20.2613 19.7049 21.5156 18.0654 20.8057L17.9072 20.7305C17.5738 20.5584 17.1996 20.4799 16.8252 20.5039C16.4506 20.528 16.089 20.6538 15.7803 20.8672C15.1836 21.2797 14.4754 21.501 13.75 21.501C13.0246 21.501 12.3164 21.2797 11.7197 20.8672L11.3691 20.627L11.3682 20.626C11.1864 20.5009 10.9706 20.4336 10.75 20.4336C10.5294 20.4336 10.3136 20.5009 10.1318 20.626L10.1309 20.627L9.7793 20.8662L9.78027 20.8672C9.18361 21.2797 8.47539 21.501 7.75 21.501C7.02461 21.501 6.31639 21.2797 5.71973 20.8672C5.41105 20.6539 5.05019 20.528 4.67578 20.5039C4.30135 20.4799 3.92719 20.5584 3.59375 20.7305C1.91349 21.5947 0 20.3194 0 18.4727ZM2.90625 19.3975C2.28862 19.7145 1.5 19.2696 1.5 18.4727V11.0498C1.5001 5.75502 5.66205 1.5 10.75 1.5C15.838 1.5 19.9999 5.75306 20 11.0508V18.4727C20 19.2204 19.3063 19.6576 18.7119 19.4482L18.5947 19.3975C18.0196 19.1006 17.3744 18.9654 16.7285 19.0068C16.0826 19.0483 15.4602 19.2649 14.9277 19.6328C14.5817 19.8721 14.1707 20.001 13.75 20.001C13.3293 20.001 12.9183 19.8721 12.5723 19.6328L12.5703 19.6318L12.2178 19.3896C11.786 19.0927 11.2741 18.9336 10.75 18.9336C10.2912 18.9336 9.8418 19.0556 9.44727 19.2852L9.28223 19.3896L8.92969 19.6318L8.92773 19.6328C8.58173 19.8721 8.17069 20.001 7.75 20.001C7.32931 20.001 6.91827 19.8721 6.57227 19.6328C6.03991 19.265 5.4172 19.0493 4.77148 19.0078C4.20657 18.9716 3.6424 19.07 3.125 19.2939L2.90625 19.3975Z" fill="black"/>
<path d="M15.5 9.25C15.5 9.79158 15.3549 10.3158 15.0811 10.7266C14.8108 11.1319 14.355 11.5 13.75 11.5C13.145 11.5 12.6892 11.1319 12.4189 10.7266C12.1451 10.3158 12 9.79158 12 9.25C12 8.70842 12.1451 8.18415 12.4189 7.77344C12.6892 7.36812 13.145 7 13.75 7C14.355 7 14.8108 7.36812 15.0811 7.77344C15.3549 8.18415 15.5 8.70842 15.5 9.25Z" fill="black"/>
<path d="M9.5 9.25C9.5 9.79161 9.35489 10.3158 9.08105 10.7266C8.8107 11.1321 8.35493 11.5 7.75 11.5C7.14507 11.5 6.6893 11.1321 6.41895 10.7266C6.14511 10.3158 6 9.79161 6 9.25C6 8.70839 6.14511 8.18421 6.41895 7.77344C6.6893 7.3679 7.14507 7 7.75 7C8.35493 7 8.8107 7.3679 9.08105 7.77344C9.35489 8.18421 9.5 8.70839 9.5 9.25Z" fill="black"/>
</svg>
